HIERARCHY
ROOT hip
{
  OFFSET 0 90.174 2.4664
  CHANNELS 6 Xposition Yposition Zposition Zrotation Xrotation Yrotation
  JOINT abdomen
  {
    OFFSET 0 -1.186 -1.5018
    CHANNELS 6 Xposition Yposition Zposition Zrotation Xrotation Yrotation
    JOINT abdomen2
    {
      OFFSET 0 9.964 0.2134
      CHANNELS 6 Xposition Yposition Zposition Zrotation Xrotation Yrotation
      JOINT chest
      {
        OFFSET 0 13.134 -3.2573
        CHANNELS 6 Xposition Yposition Zposition Zrotation Xrotation Yrotation
        JOINT neck
        {
          OFFSET 0 20.686 -1.6905
          CHANNELS 6 Xposition Yposition Zposition Zrotation Xrotation Yrotation
          JOINT head
          {
            OFFSET 0 7.238 -0.1237
            CHANNELS 6 Xposition Yposition Zposition Zrotation Xrotation Yrotation
            End Site
            {
              OFFSET 0 0 0
            }
          }
        }
        JOINT lCollar
        {
          OFFSET 1.7069 20.075 5.0056
          CHANNELS 6 Xposition Yposition Zposition Zrotation Xrotation Yrotation
          JOINT lShldr
          {
            OFFSET 13.6458 -0.047 -4.849
            CHANNELS 6 Xposition Yposition Zposition Zrotation Xrotation Yrotation
            JOINT lForeArm
            {
              OFFSET 28.3255 -0.9759 2.2888
              CHANNELS 6 Xposition Yposition Zposition Zrotation Xrotation Yrotation
              JOINT lHand
              {
                OFFSET 22.1583 -0.53 10.8316
                CHANNELS 6 Xposition Yposition Zposition Zrotation Xrotation Yrotation
                JOINT lThumb1
                {
                  OFFSET 0.786 0.112 2.5817
                  CHANNELS 6 Xposition Yposition Zposition Zrotation Xrotation Yrotation
                  JOINT lThumb2
                  {
                    OFFSET 0.3601 -0.878 4.2331
                    CHANNELS 6 Xposition Yposition Zposition Zrotation Xrotation Yrotation
                    JOINT lThumb2_End
                    {
                      OFFSET 1.8127 -1.216 2.2227
                      CHANNELS 6 Xposition Yposition Zposition Zrotation Xrotation Yrotation
                      End Site
                      {
                        OFFSET 0.0181 -0.0122 0.0222
                      }
                    }
                  }
                }
                JOINT lCarpal1
                {
                  OFFSET 0.9571 1.114 1.7695
                  CHANNELS 6 Xposition Yposition Zposition Zrotation Xrotation Yrotation
                  JOINT lIndex1
                  {
                    OFFSET 4.1246 0.487 4.1451
                    CHANNELS 6 Xposition Yposition Zposition Zrotation Xrotation Yrotation
                    JOINT lIndex2
                    {
                      OFFSET 3.4052 -1.454 2.7682
                      CHANNELS 6 Xposition Yposition Zposition Zrotation Xrotation Yrotation
                      JOINT lIndex2_End
                      {
                        OFFSET 1.4531 -1.795 1.2713
                        CHANNELS 6 Xposition Yposition Zposition Zrotation Xrotation Yrotation
                        End Site
                        {
                          OFFSET 0.0145 -0.0179 0.0127
                        }
                      }
                    }
                  }
                  JOINT lMid1
                  {
                    OFFSET 5.6954 0.21 2.1184
                    CHANNELS 6 Xposition Yposition Zposition Zrotation Xrotation Yrotation
                    JOINT lMid2
                    {
                      OFFSET 3.9766 -1.54 2.3863
                      CHANNELS 6 Xposition Yposition Zposition Zrotation Xrotation Yrotation
                      JOINT lMid2_End
                      {
                        OFFSET 1.4042 -1.926 1.125
                        CHANNELS 6 Xposition Yposition Zposition Zrotation Xrotation Yrotation
                        End Site
                        {
                          OFFSET 0.014 -0.0193 0.0113
                        }
                      }
                    }
                  }
                }
                JOINT lCarpal2
                {
                  OFFSET 2.0956 0.66 -0.3894
                  CHANNELS 6 Xposition Yposition Zposition Zrotation Xrotation Yrotation
                  JOINT lRing1
                  {
                    OFFSET 5.0395 -0.09 2.4971
                    CHANNELS 6 Xposition Yposition Zposition Zrotation Xrotation Yrotation
                    JOINT lRing2
                    {
                      OFFSET 3.7921 -1.552 1.4806
                      CHANNELS 6 Xposition Yposition Zposition Zrotation Xrotation Yrotation
                      JOINT lRing2_End
                      {
                        OFFSET 1.4655 -1.808 0.9609
                        CHANNELS 6 Xposition Yposition Zposition Zrotation Xrotation Yrotation
                        End Site
                        {
                          OFFSET 0.0147 -0.0181 0.0096
                        }
                      }
                    }
                  }
                  JOINT lPinky1
                  {
                    OFFSET 4.9141 -1.269 0.3591
                    CHANNELS 6 Xposition Yposition Zposition Zrotation Xrotation Yrotation
                    JOINT lPinky2
                    {
                      OFFSET 3.1477 -1.685 0.8462
                      CHANNELS 6 Xposition Yposition Zposition Zrotation Xrotation Yrotation
                      JOINT lPinky2_End
                      {
                        OFFSET 0.8055 -1.585 0.7955
                        CHANNELS 6 Xposition Yposition Zposition Zrotation Xrotation Yrotation
                        End Site
                        {
                          OFFSET 0.0081 -0.0158 0.008
                        }
                      }
                    }
                  }
                }
              }
            }
          }
        }
        JOINT rCollar
        {
          OFFSET -1.7069 20.075 5.0056
          CHANNELS 6 Xposition Yposition Zposition Zrotation Xrotation Yrotation
          JOINT rShldr
          {
            OFFSET -13.6458 -0.047 -4.849
            CHANNELS 6 Xposition Yposition Zposition Zrotation Xrotation Yrotation
            JOINT rForeArm
            {
              OFFSET -28.3255 -0.9759 2.2888
              CHANNELS 6 Xposition Yposition Zposition Zrotation Xrotation Yrotation
              JOINT rHand
              {
                OFFSET -22.1583 -0.53 10.8316
                CHANNELS 6 Xposition Yposition Zposition Zrotation Xrotation Yrotation
                JOINT rThumb1
                {
                  OFFSET -0.786 0.112 2.5817
                  CHANNELS 6 Xposition Yposition Zposition Zrotation Xrotation Yrotation
                  JOINT rThumb2
                  {
                    OFFSET -0.3601 -0.878 4.2331
                    CHANNELS 6 Xposition Yposition Zposition Zrotation Xrotation Yrotation
                    JOINT rThumb2_End
                    {
                      OFFSET -1.8127 -1.216 2.2227
                      CHANNELS 6 Xposition Yposition Zposition Zrotation Xrotation Yrotation
                      End Site
                      {
                        OFFSET -0.0181 -0.0122 0.0222
                      }
                    }
                  }
                }
                JOINT rCarpal1
                {
                  OFFSET -0.9571 1.114 1.7695
                  CHANNELS 6 Xposition Yposition Zposition Zrotation Xrotation Yrotation
                  JOINT rIndex1
                  {
                    OFFSET -4.1246 0.487 4.1451
                    CHANNELS 6 Xposition Yposition Zposition Zrotation Xrotation Yrotation
                    JOINT rIndex2
                    {
                      OFFSET -3.4052 -1.454 2.7682
                      CHANNELS 6 Xposition Yposition Zposition Zrotation Xrotation Yrotation
                      JOINT rIndex2_End
                      {
                        OFFSET -1.4531 -1.795 1.2713
                        CHANNELS 6 Xposition Yposition Zposition Zrotation Xrotation Yrotation
                        End Site
                        {
                          OFFSET -0.0145 -0.018 0.0127
                        }
                      }
                    }
                  }
                  JOINT rMid1
                  {
                    OFFSET -5.6954 0.21 2.1184
                    CHANNELS 6 Xposition Yposition Zposition Zrotation Xrotation Yrotation
                    JOINT rMid2
                    {
                      OFFSET -3.9766 -1.54 2.3863
                      CHANNELS 6 Xposition Yposition Zposition Zrotation Xrotation Yrotation
                      JOINT rMid2_End
                      {
                        OFFSET -1.4042 -1.926 1.125
                        CHANNELS 6 Xposition Yposition Zposition Zrotation Xrotation Yrotation
                        End Site
                        {
                          OFFSET -0.014 -0.0193 0.0113
                        }
                      }
                    }
                  }
                }
                JOINT rCarpal2
                {
                  OFFSET -2.0956 0.66 -0.3894
                  CHANNELS 6 Xposition Yposition Zposition Zrotation Xrotation Yrotation
                  JOINT rRing1
                  {
                    OFFSET -5.0395 -0.09 2.4971
                    CHANNELS 6 Xposition Yposition Zposition Zrotation Xrotation Yrotation
                    JOINT rRing2
                    {
                      OFFSET -3.7921 -1.552 1.4806
                      CHANNELS 6 Xposition Yposition Zposition Zrotation Xrotation Yrotation
                      JOINT rRing2_End
                      {
                        OFFSET -1.4655 -1.808 0.9609
                        CHANNELS 6 Xposition Yposition Zposition Zrotation Xrotation Yrotation
                        End Site
                        {
                          OFFSET -0.0147 -0.0181 0.0096
                        }
                      }
                    }
                  }
                  JOINT rPinky1
                  {
                    OFFSET -4.9141 -1.269 0.3592
                    CHANNELS 6 Xposition Yposition Zposition Zrotation Xrotation Yrotation
                    JOINT rPinky2
                    {
                      OFFSET -3.1477 -1.685 0.8462
                      CHANNELS 6 Xposition Yposition Zposition Zrotation Xrotation Yrotation
                      JOINT rPinky2_End
                      {
                        OFFSET -0.8055 -1.585 0.7955
                        CHANNELS 6 Xposition Yposition Zposition Zrotation Xrotation Yrotation
                        End Site
                        {
                          OFFSET -0.0081 -0.0158 0.008
                        }
                      }
                    }
                  }
                }
              }
            }
          }
        }
      }
    }
  }
  JOINT lThigh
  {
    OFFSET 8.367 -8.2066 0.5982
    CHANNELS 6 Xposition Yposition Zposition Zrotation Xrotation Yrotation
    JOINT lShin
    {
      OFFSET 2.1923 -43.463 -0.4932
      CHANNELS 6 Xposition Yposition Zposition Zrotation Xrotation Yrotation
      JOINT lFoot
      {
        OFFSET 0.7333 -45.8593 -2.6451
        CHANNELS 6 Xposition Yposition Zposition Zrotation Xrotation Yrotation
        End Site
        {
          OFFSET 2.6618 -4.2699 12.3931
        }
      }
    }
  }
  JOINT rThigh
  {
    OFFSET -8.367 -8.2066 0.5982
    CHANNELS 6 Xposition Yposition Zposition Zrotation Xrotation Yrotation
    JOINT rShin
    {
      OFFSET -2.1923 -43.463 -0.4931
      CHANNELS 6 Xposition Yposition Zposition Zrotation Xrotation Yrotation
      JOINT rFoot
      {
        OFFSET -0.7333 -45.8593 -2.6451
        CHANNELS 6 Xposition Yposition Zposition Zrotation Xrotation Yrotation
        End Site
        {
          OFFSET -2.6618 -4.2699 12.3931
        }
      }
    }
  }
}
MOTION
Frames:	4
Frame Time:	0.0333333
42.5026 -1.70234 70.055 0 74.798 -0 0 -1.186 -1.5018 -0.269185 1.51431 -0.197383 0 9.964 0.2134 -0.533428 3.02954 -0.387847 7.10543e-015 13.134 -3.2573 -0.533428 3.02951 -0.387848 0 20.686 -1.6905 -1.74002e-005 -24.0062 -1.12145e-005 0 7.238 -0.1237 -0.0600574 -22.3427 -0.0243363 1.7069 20.075 5.0056 3.30275 3.06412 -2.48631 13.6458 -0.047 -4.849 -57.8631 -39.8179 -31.1632 28.3255 -0.9759 2.2888 45.1226 -40.4738 -50.5598 22.1583 -0.53 10.8316 -2.81603 -4.97791 6.23932 0.786 0.112 2.5817 2.45885e-008 -2.56454e-007 -4.04123e-006 0.3601 -0.878 4.2331 2.00145e-007 7.38015e-008 -6.14364e-009 1.8127 -1.216 2.2227 2.00145e-007 7.38015e-008 -6.14367e-009 0.9571 1.114 1.7695 7.95139e-016 7.95139e-016 -0 4.1246 0.487 4.1451 2.45885e-008 -2.56454e-007 -4.04123e-006 3.4052 -1.454 2.7682 2.00145e-007 7.38015e-008 -6.14363e-009 1.4531 -1.795 1.2713 2.00145e-007 7.38015e-008 -6.14368e-009 5.6954 0.21 2.1184 2.45885e-008 -2.56454e-007 -4.04123e-006 3.9766 -1.54 2.3863 2.00145e-007 7.38015e-008 -6.14363e-009 1.4042 -1.926 1.125 2.00145e-007 7.38015e-008 -6.14368e-009 2.0956 0.66 -0.3894 7.95139e-016 7.95139e-016 -0 5.0395 -0.09 2.4971 2.45885e-008 -2.56454e-007 -4.04123e-006 3.7921 -1.552 1.4806 2.00145e-007 7.38015e-008 -6.14363e-009 1.4655 -1.808 0.9609 2.00145e-007 7.38015e-008 -6.14368e-009 4.9141 -1.269 0.3591 2.45885e-008 -2.56454e-007 -4.04123e-006 3.1477 -1.685 0.8462 2.00145e-007 7.38015e-008 -6.14363e-009 0.8055 -1.585 0.7955 2.00145e-007 7.38015e-008 -6.14368e-009 -1.7069 20.075 5.0056 5.40627 -1.05322 -5.23595 -13.6458 -0.047 -4.849 64.8901 -29.6081 35.3713 -28.3255 -0.9759 2.2888 -48.7443 -43.7649 46.9876 -22.1583 -0.53 10.8316 5.68889 3.82085 -1.1587 -0.786 0.112 2.5817 -6.12365e-008 -2.04182e-007 -1.0406e-008 -0.3601 -0.878 4.2331 5.38893e-016 1.28123e-015 -9.54166e-015 -1.8127 -1.216 2.2227 -4.34841e-017 7.25253e-016 -9.54166e-015 -0.9571 1.114 1.7695 2.98177e-016 -1.16941e-015 6.36111e-015 -4.1246 0.487 4.1451 -6.12365e-008 -2.04182e-007 -1.0406e-008 -3.4052 -1.454 2.7682 -3.88251e-017 1.0607e-015 -9.54166e-015 -1.4531 -1.795 1.2713 1.80149e-016 1.77043e-016 -6.36111e-015 -5.6954 0.21 2.1184 -6.12365e-008 -2.04182e-007 -1.0406e-008 -3.9766 -1.54 2.3863 -3.88251e-017 1.0607e-015 -9.54166e-015 -1.4042 -1.926 1.125 1.80149e-016 1.77043e-016 -6.36111e-015 -2.0956 0.66 -0.3894 2.98177e-016 -1.16941e-015 6.36111e-015 -5.0395 -0.09 2.4971 -6.12365e-008 -2.04182e-007 -1.0406e-008 -3.7921 -1.552 1.4806 -3.88251e-017 1.0607e-015 -9.54166e-015 -1.4655 -1.808 0.9609 1.80149e-016 1.77043e-016 -6.36111e-015 -4.9141 -1.269 0.3592 -6.12365e-008 -2.04182e-007 -1.0406e-008 -3.1477 -1.685 0.8462 -3.88251e-017 1.0607e-015 -9.54166e-015 -0.8055 -1.585 0.7955 1.80149e-016 1.77043e-016 -6.36111e-015 8.367 -8.2066 0.5982 25.9493 11.3934 48.0929 2.1923 -43.463 -0.4932 -6.64419 8.33071 19.8981 0.7333 -45.8593 -2.6451 11.0961 54.7266 -16.994 -8.367 -8.2066 0.5982 -32.5237 7.94097 -48.3714 -2.1923 -43.463 -0.4931 6.82417 14.5543 -19.6652 -0.7333 -45.8593 -2.6451 -10.9004 55.3196 18.3099 
42.5012 -1.68165 70.0294 0 74.5978 -0 0 -1.186 -1.5018 -0.268545 1.60081 -0.19602 7.10543e-015 9.964 0.2134 -0.531918 3.20254 -0.384753 7.10543e-015 13.134 -3.2573 -0.531919 3.20254 -0.384754 0 20.686 -1.6905 9.40898e-006 -24.0063 5.39228e-006 0 7.238 -0.1237 -0.0600581 -22.3427 -0.0243367 1.7069 20.075 5.0056 2.8496 2.9043 -2.24747 13.6458 -0.047 -4.849 -58.2168 -39.6148 -32.3078 28.3255 -0.9759 2.2888 45.0823 -40.3558 -50.3631 22.1583 -0.53 10.8316 -2.91176 -4.22702 5.87694 0.786 0.112 2.5817 2.00146e-007 7.38199e-008 -5.94348e-009 0.3601 -0.878 4.2331 -1.59028e-015 7.95139e-016 -1.59028e-014 1.8127 -1.216 2.2227 2.00146e-007 7.38199e-008 -5.94347e-009 0.9571 1.114 1.7695 3.97569e-016 0 -3.18055e-015 4.1246 0.487 4.1451 2.00146e-007 7.38199e-008 -5.94348e-009 3.4052 -1.454 2.7682 -7.95139e-016 0 -1.59028e-014 1.4531 -1.795 1.2713 2.00146e-007 7.38199e-008 -5.94347e-009 5.6954 0.21 2.1184 2.00146e-007 7.38199e-008 -5.94348e-009 3.9766 -1.54 2.3863 -7.95139e-016 0 -1.59028e-014 1.4042 -1.926 1.125 2.00146e-007 7.38199e-008 -5.94347e-009 2.0956 0.66 -0.3894 3.97569e-016 0 -3.18055e-015 5.0395 -0.09 2.4971 2.00146e-007 7.38199e-008 -5.94348e-009 3.7921 -1.552 1.4806 -7.95139e-016 0 -1.59028e-014 1.4655 -1.808 0.9609 2.00146e-007 7.38199e-008 -5.94347e-009 4.9141 -1.269 0.3591 2.00146e-007 7.38199e-008 -5.94348e-009 3.1477 -1.685 0.8462 -7.95139e-016 0 -1.59028e-014 0.8055 -1.585 0.7955 2.00146e-007 7.38199e-008 -5.94347e-009 -1.7069 20.075 5.0056 5.59717 -1.01723 -5.12415 -13.6458 -0.047 -4.849 64.8835 -29.6387 35.8108 -28.3255 -0.9759 2.2888 -48.7362 -43.7242 46.8304 -22.1583 -0.53 10.8316 5.5916 4.109 -1.06592 -0.786 0.112 2.5817 1.73937e-016 1.2424e-016 9.54166e-015 -0.3601 -0.878 4.2331 1.27968e-015 7.33018e-016 3.18055e-015 -1.8127 -1.216 2.2227 1.26725e-015 7.95139e-016 3.18055e-015 -0.9571 1.114 1.7695 -1.41634e-015 4.96962e-017 9.54166e-015 -4.1246 0.487 4.1451 9.06955e-016 -1.11816e-016 1.59028e-014 -3.4052 -1.454 2.7682 -2.73329e-016 1.11816e-016 6.36111e-015 -1.4531 -1.795 1.2713 1.32937e-015 4.09993e-016 -0 -5.6954 0.21 2.1184 9.06955e-016 -1.11816e-016 1.59028e-014 -3.9766 -1.54 2.3863 -2.73329e-016 1.11816e-016 6.36111e-015 -1.4042 -1.926 1.125 1.32937e-015 4.09993e-016 -0 -2.0956 0.66 -0.3894 -1.41634e-015 4.96962e-017 9.54166e-015 -5.0395 -0.09 2.4971 9.06955e-016 -1.11816e-016 1.59028e-014 -3.7921 -1.552 1.4806 -2.73329e-016 1.11816e-016 6.36111e-015 -1.4655 -1.808 0.9609 1.32937e-015 4.09993e-016 -0 -4.9141 -1.269 0.3592 9.06955e-016 -1.11816e-016 1.59028e-014 -3.1477 -1.685 0.8462 -2.73329e-016 1.11816e-016 6.36111e-015 -0.8055 -1.585 0.7955 1.32937e-015 4.09993e-016 -0 8.367 -8.2066 0.5982 26.0383 11.543 48.0955 2.1923 -43.463 -0.4932 -6.64463 8.33548 19.895 0.7333 -45.8593 -2.6451 11.1777 54.6272 -17.1267 -8.367 -8.2066 0.5982 -32.5989 8.09306 -48.3664 -2.1923 -43.463 -0.4931 6.8265 14.5866 -19.6612 -0.7333 -45.8593 -2.6451 -11.0165 55.2435 18.4617 
42.4998 -1.66097 70.0038 0 74.3977 -0 0 -1.186 -1.5018 -0.2679 1.68732 -0.194652 7.10543e-015 9.964 0.2134 -0.530406 3.37552 -0.381654 0 13.134 -3.2573 -0.530405 3.37552 -0.381654 7.10543e-015 20.686 -1.6905 3.87928e-006 -24.0063 2.67802e-006 0 7.238 -0.1237 -0.0600569 -22.3427 -0.0243365 1.7069 20.075 5.0056 2.39719 2.7427 -2.00998 13.6458 -0.047 -4.849 -58.564 -39.4063 -33.447 28.3255 -0.9759 2.2888 45.0416 -40.2379 -50.1665 22.1583 -0.53 10.8316 -3.00261 -3.4757 5.51618 0.786 0.112 2.5817 3.97569e-016 1.59028e-015 3.18055e-015 0.3601 -0.878 4.2331 7.95139e-016 1.59028e-015 -3.18055e-015 1.8127 -1.216 2.2227 3.97569e-016 3.97569e-016 -6.36111e-015 0.9571 1.114 1.7695 -6.62086e-032 1.19271e-015 3.18055e-015 4.1246 0.487 4.1451 -7.95139e-016 7.95139e-016 6.36111e-015 3.4052 -1.454 2.7682 -1.76556e-031 7.95139e-016 1.27222e-014 1.4531 -1.795 1.2713 1.98785e-015 7.95139e-016 6.36111e-015 5.6954 0.21 2.1184 -7.95139e-016 7.95139e-016 6.36111e-015 3.9766 -1.54 2.3863 -1.76556e-031 7.95139e-016 1.27222e-014 1.4042 -1.926 1.125 1.98785e-015 7.95139e-016 6.36111e-015 2.0956 0.66 -0.3894 -6.62086e-032 1.19271e-015 3.18055e-015 5.0395 -0.09 2.4971 -7.95139e-016 7.95139e-016 6.36111e-015 3.7921 -1.552 1.4806 -1.76556e-031 7.95139e-016 1.27222e-014 1.4655 -1.808 0.9609 1.98785e-015 7.95139e-016 6.36111e-015 4.9141 -1.269 0.3591 -7.95139e-016 7.95139e-016 6.36111e-015 3.1477 -1.685 0.8462 -1.76556e-031 7.95139e-016 1.27222e-014 0.8055 -1.585 0.7955 1.98785e-015 7.95139e-016 6.36111e-015 -1.7069 20.075 5.0056 5.78798 -0.980779 -5.0125 -13.6458 -0.047 -4.849 64.8771 -29.6695 36.2503 -28.3255 -0.9759 2.2888 -48.7279 -43.6834 46.6733 -22.1583 -0.53 10.8316 5.49382 4.39698 -0.972611 -0.786 0.112 2.5817 1.53851e-007 -5.90111e-008 6.5739e-007 -0.3601 -0.878 4.2331 1.86361e-015 5.96354e-016 -0 -1.8127 -1.216 2.2227 3.15756e-007 1.40675e-007 -6.40056e-007 -0.9571 1.114 1.7695 1.49089e-016 1.2424e-016 6.36111e-015 -4.1246 0.487 4.1451 1.53851e-007 -5.90111e-008 6.5739e-007 -3.4052 -1.454 2.7682 1.26725e-015 -1.2424e-016 -3.18055e-015 -1.4531 -1.795 1.2713 3.15756e-007 1.40675e-007 -6.40056e-007 -5.6954 0.21 2.1184 1.53851e-007 -5.90111e-008 6.5739e-007 -3.9766 -1.54 2.3863 1.26725e-015 -1.2424e-016 -3.18055e-015 -1.4042 -1.926 1.125 3.15756e-007 1.40675e-007 -6.40056e-007 -2.0956 0.66 -0.3894 1.49089e-016 1.2424e-016 6.36111e-015 -5.0395 -0.09 2.4971 1.53851e-007 -5.90111e-008 6.5739e-007 -3.7921 -1.552 1.4806 1.26725e-015 -1.2424e-016 -3.18055e-015 -1.4655 -1.808 0.9609 3.15756e-007 1.40675e-007 -6.40056e-007 -4.9141 -1.269 0.3592 1.53851e-007 -5.90111e-008 6.5739e-007 -3.1477 -1.685 0.8462 1.26725e-015 -1.2424e-016 -3.18055e-015 -0.8055 -1.585 0.7955 3.15756e-007 1.40675e-007 -6.40056e-007 8.367 -8.2066 0.5982 26.1273 11.6928 48.0979 2.1923 -43.463 -0.4932 -6.64512 8.33988 19.8919 0.7333 -45.8593 -2.6451 11.2586 54.5278 -17.2587 -8.367 -8.2066 0.5982 -32.6741 8.24515 -48.3612 -2.1923 -43.463 -0.4931 6.82878 14.6188 -19.6573 -0.7333 -45.8593 -2.6451 -11.1321 55.1674 18.6129 
42.4984 -1.64029 69.9782 0 74.1976 -0 0 -1.186 -1.5018 -0.267255 1.7738 -0.193284 0 9.964 0.2134 -0.528898 3.54848 -0.378556 7.10543e-015 13.134 -3.2573 -0.528898 3.5485 -0.378556 0 20.686 -1.6905 -2.74085e-005 -24.0064 -1.03651e-005 -7.10543e-015 7.238 -0.1237 -0.0600574 -22.3427 -0.0243365 1.7069 20.075 5.0056 1.94557 2.57928 -1.77384 13.6458 -0.047 -4.849 -58.9045 -39.1926 -34.5807 28.3255 -0.9759 2.2888 45.0004 -40.1201 -49.9701 22.1583 -0.53 10.8316 -3.08865 -2.72407 5.15697 0.786 0.112 2.5817 3.97569e-016 0 -9.54166e-015 0.3601 -0.878 4.2331 -3.97569e-016 -3.97569e-016 -3.18055e-015 1.8127 -1.216 2.2227 3.97569e-016 -3.97569e-016 -3.18055e-015 0.9571 1.114 1.7695 3.97569e-016 0 -9.54166e-015 4.1246 0.487 4.1451 -3.97569e-016 -1.19271e-015 6.36111e-015 3.4052 -1.454 2.7682 -3.97569e-016 -3.97569e-016 -3.18055e-015 1.4531 -1.795 1.2713 -7.95139e-016 -3.97569e-016 -3.18055e-015 5.6954 0.21 2.1184 -3.97569e-016 -1.19271e-015 6.36111e-015 3.9766 -1.54 2.3863 -3.97569e-016 -3.97569e-016 -3.18055e-015 1.4042 -1.926 1.125 -7.95139e-016 -3.97569e-016 -3.18055e-015 2.0956 0.66 -0.3894 3.97569e-016 0 -9.54166e-015 5.0395 -0.09 2.4971 -3.97569e-016 -1.19271e-015 6.36111e-015 3.7921 -1.552 1.4806 -3.97569e-016 -3.97569e-016 -3.18055e-015 1.4655 -1.808 0.9609 -7.95139e-016 -3.97569e-016 -3.18055e-015 4.9141 -1.269 0.3591 -3.97569e-016 -1.19271e-015 6.36111e-015 3.1477 -1.685 0.8462 -3.97569e-016 -3.97569e-016 -3.18055e-015 0.8055 -1.585 0.7955 -7.95139e-016 -3.97569e-016 -3.18055e-015 -1.7069 20.075 5.0056 5.97871 -0.943955 -4.90098 -13.6458 -0.047 -4.849 64.8711 -29.7003 36.6899 -28.3255 -0.9759 2.2888 -48.7194 -43.6427 46.5162 -22.1583 -0.53 10.8316 5.39553 4.6848 -0.878751 -0.786 0.112 2.5817 3.67133e-007 -5.33649e-007 1.95493e-006 -0.3601 -0.878 4.2331 4.69608e-007 8.16479e-008 1.7704e-008 -1.8127 -1.216 2.2227 -4.28395e-007 3.29476e-007 -1.96515e-006 -0.9571 1.114 1.7695 1.04362e-015 6.95746e-016 -3.18055e-015 -4.1246 0.487 4.1451 3.67133e-007 -5.33649e-007 1.95493e-006 -3.4052 -1.454 2.7682 4.69608e-007 8.16479e-008 1.77039e-008 -1.4531 -1.795 1.2713 -4.28395e-007 3.29476e-007 -1.96515e-006 -5.6954 0.21 2.1184 3.67133e-007 -5.33649e-007 1.95493e-006 -3.9766 -1.54 2.3863 4.69608e-007 8.16479e-008 1.77039e-008 -1.4042 -1.926 1.125 -4.28395e-007 3.29476e-007 -1.96515e-006 -2.0956 0.66 -0.3894 1.04362e-015 6.95746e-016 -3.18055e-015 -5.0395 -0.09 2.4971 3.67133e-007 -5.33649e-007 1.95493e-006 -3.7921 -1.552 1.4806 4.69608e-007 8.16479e-008 1.77039e-008 -1.4655 -1.808 0.9609 -4.28395e-007 3.29476e-007 -1.96515e-006 -4.9141 -1.269 0.3592 3.67133e-007 -5.33649e-007 1.95493e-006 -3.1477 -1.685 0.8462 4.69608e-007 8.16479e-008 1.77039e-008 -0.8055 -1.585 0.7955 -4.28395e-007 3.29476e-007 -1.96515e-006 8.367 -8.2066 0.5982 26.2164 11.8424 48.1 2.1923 -43.463 -0.4932 -6.64555 8.3447 19.8888 0.7333 -45.8593 -2.6451 11.3389 54.4281 -17.3901 -8.367 -8.2066 0.5982 -32.7493 8.39726 -48.3558 -2.1923 -43.463 -0.4931 6.83102 14.6509 -19.6533 -0.7333 -45.8593 -2.6451 -11.247 55.0912 18.7637 
